<?xml version="1.0" encoding="UTF-8" standalone="no"?>
<svg
   xmlns:dc="http://purl.org/dc/elements/1.1/"
   xmlns:cc="http://creativecommons.org/ns#"
   xmlns:rdf="http://www.w3.org/1999/02/22-rdf-syntax-ns#"
   xmlns:svg="http://www.w3.org/2000/svg"
   xmlns="http://www.w3.org/2000/svg"
   xmlns:sodipodi="http://sodipodi.sourceforge.net/DTD/sodipodi-0.dtd"
   xmlns:inkscape="http://www.inkscape.org/namespaces/inkscape"
   height="20"
   id="Layer_1"
   version="1.1"
   viewBox="0 0 20 20"
   width="20"
   xml:space="preserve"
   sodipodi:docname="home-icon.svg"
   inkscape:version="1.0.1 (3bc2e813f5, 2020-09-07)"><metadata
     id="metadata9"><rdf:RDF><cc:Work
         rdf:about=""><dc:format>image/svg+xml</dc:format><dc:type
           rdf:resource="http://purl.org/dc/dcmitype/StillImage" /><dc:title></dc:title></cc:Work></rdf:RDF></metadata><defs
     id="defs7" /><sodipodi:namedview
     pagecolor="#ffffff"
     bordercolor="#666666"
     borderopacity="1"
     objecttolerance="10"
     gridtolerance="10"
     guidetolerance="10"
     inkscape:pageopacity="0"
     inkscape:pageshadow="2"
     inkscape:window-width="3840"
     inkscape:window-height="2123"
     id="namedview5"
     showgrid="false"
     inkscape:zoom="53.875"
     inkscape:cx="8"
     inkscape:cy="8"
     inkscape:window-x="3414"
     inkscape:window-y="0"
     inkscape:window-maximized="1"
     inkscape:current-layer="Layer_1"
     fit-margin-top="4"
     fit-margin-left="4"
     fit-margin-right="4"
     fit-margin-bottom="4" /><path
     d="M 17.45,9 16,7.551 V 4 C 16,3.45 15.55,3 15,3 H 14 C 13.45,3 13,3.45 13,4 V 4.553 L 11,2.555 C 10.727,2.297 10.477,2 10,2 9.523,2 9.273,2.297 9,2.555 L 2.55,9 C 2.238,9.325 2,9.562 2,10 c 0,0.563 0.432,1 1,1 h 1 v 6 c 0,0.55 0.45,1 1,1 h 3 v -5 c 0,-0.55 0.45,-1 1,-1 h 2 c 0.55,0 1,0.45 1,1 v 5 h 3 c 0.55,0 1,-0.45 1,-1 v -6 h 1 c 0.568,0 1,-0.437 1,-1 0,-0.438 -0.238,-0.675 -0.55,-1 z"
     id="path2"
     style="fill:currentColor;stroke-width:1" /></svg>
